<svg xmlns="http://www.w3.org/2000/svg" width="36" height="36" viewBox="0 0 36 36"><path fill="#fdd63c" d="M18 0A18 18 0 1 1 0 18 18 18 0 0 1 18 0Z"/><g fill="none" stroke="#411051" stroke-linecap="square" stroke-width="0.6"><path d="m12.325 9.909.17 1.753h-.349a2.457 2.457 0 0 0-2.447 2.675v.054a5.391 5.391 0 0 0 3.452 4.56 1.327 1.327 0 0 1 .644.523 4.915 4.915 0 0 0 3.216 2.167v2.223a1.187 1.187 0 0 1-.545 1" data-name="Path 12974"/><path d="M24.284 8.427H11.576" data-name="Line 160"/><path d="M19.39 24.864a1.187 1.187 0 0 1-.545-1v-2.219a4.916 4.916 0 0 0 3.183-2.117 1.363 1.363 0 0 1 .689-.526 5.39 5.39 0 0 0 3.581-4.606v-.055a2.457 2.457 0 0 0-2.448-2.675h-.49l.17-1.753" data-name="Path 12975"/><path d="M13.744 27.573v-1.385h8.371v1.385" data-name="Path 12976"/><path d="m17.93 12.195.744 1.79 1.949.166-1.49 1.249.461 1.917-1.664-1.043-1.664 1.043.461-1.917-1.49-1.249 1.949-.166Z" data-name="Path 12977"/><path d="m13.035 17.231-.415-4.269h-.462a1.154 1.154 0 0 0-1.15 1.246l.009.1a4.008 4.008 0 0 0 2.053 3.189q-.023-.13-.035-.266Z" data-name="Path 12978"/><path d="M23.841 12.967h-.6l-.414 4.269q-.015.175-.042.347a4.009 4.009 0 0 0 2.2-3.265l.009-.1a1.154 1.154 0 0 0-1.153-1.251Z" data-name="Path 12979"/></g></svg>