<svg xmlns="http://www.w3.org/2000/svg" width="36" height="36" viewBox="0 0 36 36"><path fill="#fdd63c" d="M18 0A18 18 0 1 1 0 18 18 18 0 0 1 18 0Z"/><g fill="#6a2578" data-name="info"><path d="M9.332 22.107a4.821 4.821 0 0 1-.026 1.182 4.932 4.932 0 0 1-.69 1.883.575.575 0 0 0 .489.876.564.564 0 0 0 .082-.006 7.413 7.413 0 0 0 2.369-.759 7.184 7.184 0 0 0 1.845-1.365 12.049 12.049 0 0 0 2.507.263 11.806 11.806 0 0 0 3.492-.52 10.6 10.6 0 0 0 3.926-.078 6.416 6.416 0 0 0 1.615 1.187 6.577 6.577 0 0 0 2.106.675.763.763 0 0 0 .08.006.574.574 0 0 0 .489-.877 4.332 4.332 0 0 1-.6-1.63 4.282 4.282 0 0 1-.02-.991 5.632 5.632 0 0 0 2.417-4.472c0-3.489-3.71-6.329-8.272-6.329h-.064a11.4 11.4 0 0 0-5.169-1.199c-5.139 0-9.318 3.191-9.318 7.113a6.331 6.331 0 0 0 2.745 5.041m18.932-4.63a4.593 4.593 0 0 1-2.144 3.69.567.567 0 0 0-.233.382 5.4 5.4 0 0 0 .212 2.477 5.559 5.559 0 0 1-.629-.279 5.272 5.272 0 0 1-1.521-1.181.573.573 0 0 0-.428-.193.563.563 0 0 0-.138.014 9.341 9.341 0 0 1-1.695.251 6.668 6.668 0 0 0 3.541-5.574 6.19 6.19 0 0 0-2.195-4.578c3.012.6 5.229 2.61 5.229 4.989m-12.358-6.372c4.506 0 8.172 2.675 8.172 5.964s-3.666 5.964-8.172 5.964a10.89 10.89 0 0 1-2.567-.305.574.574 0 0 0-.566.177 6.044 6.044 0 0 1-1.749 1.36 6.277 6.277 0 0 1-.881.374 5.995 5.995 0 0 0 .294-2.931.573.573 0 0 0-.235-.383 5.29 5.29 0 0 1-2.469-4.257c0-3.288 3.666-5.964 8.172-5.964" data-name="Path 12645"/><path d="M12.636 18.188a.867.867 0 1 0-.867-.867.868.868 0 0 0 .867.867" data-name="Path 12646"/><path d="M15.993 18.188a.867.867 0 1 0-.867-.867.868.868 0 0 0 .867.867" data-name="Path 12647"/><path d="M19.262 18.188a.867.867 0 1 0-.867-.867.868.868 0 0 0 .867.867" data-name="Path 12648"/></g></svg>