<svg xmlns="http://www.w3.org/2000/svg" width="74.72" height="74.72" viewBox="0 0 74.72 74.72">
  <g id="volume" transform="translate(-0.386 -0.386)">
    <g id="Base" transform="translate(0.386 0.386)" fill="none">
      <path d="M37.36,0A37.36,37.36,0,1,1,0,37.36,37.36,37.36,0,0,1,37.36,0Z" stroke="none"/>
      <path d="M 37.35986328125 2 C 32.58543014526367 2 27.95487594604492 2.93463134765625 23.59681701660156 4.777931213378906 C 19.38642883300781 6.55877685546875 15.60469818115234 9.108627319335938 12.35666275024414 12.35666275024414 C 9.108627319335938 15.60469818115234 6.55877685546875 19.38642883300781 4.777931213378906 23.59681701660156 C 2.93463134765625 27.95487594604492 2 32.58543014526367 2 37.35986328125 C 2 42.13429641723633 2.93463134765625 46.76485443115234 4.777931213378906 51.12290954589844 C 6.55877685546875 55.33329772949219 9.108627319335938 59.11502838134766 12.35666275024414 62.36306381225586 C 15.60469818115234 65.61109924316406 19.38642883300781 68.16094970703125 23.59681701660156 69.94179534912109 C 27.95487594604492 71.78509521484375 32.58543014526367 72.7197265625 37.35986328125 72.7197265625 C 42.13429641723633 72.7197265625 46.76485443115234 71.78509521484375 51.12290954589844 69.94179534912109 C 55.33329772949219 68.16094970703125 59.11502838134766 65.61109924316406 62.36306381225586 62.36306381225586 C 65.61109924316406 59.11502838134766 68.16094970703125 55.33329772949219 69.94179534912109 51.12290954589844 C 71.78509521484375 46.76485443115234 72.7197265625 42.13429641723633 72.7197265625 37.35986328125 C 72.7197265625 32.58543014526367 71.78509521484375 27.95487594604492 69.94179534912109 23.59681701660156 C 68.16094970703125 19.38642883300781 65.61109924316406 15.60469818115234 62.36306381225586 12.35666275024414 C 59.11502838134766 9.108627319335938 55.33329772949219 6.55877685546875 51.12290954589844 4.777931213378906 C 46.76485443115234 2.93463134765625 42.13429641723633 2 37.35986328125 2 M 37.35986328125 0 C 57.99314117431641 0 74.7197265625 16.72658538818359 74.7197265625 37.35986328125 C 74.7197265625 57.99314117431641 57.99314117431641 74.7197265625 37.35986328125 74.7197265625 C 16.72658538818359 74.7197265625 0 57.99314117431641 0 37.35986328125 C 0 16.72658538818359 16.72658538818359 0 37.35986328125 0 Z" stroke="none" fill="#fff"/>
    </g>
    <path id="Icon_awesome-volume-up" data-name="Icon awesome-volume-up" d="M13.592,4.6,7.968,10.227H1.517A1.517,1.517,0,0,0,0,11.744v9.1a1.517,1.517,0,0,0,1.517,1.517H7.968l5.624,5.623a1.518,1.518,0,0,0,2.59-1.073V5.677A1.518,1.518,0,0,0,13.592,4.6ZM28.34,1.376a1.53,1.53,0,1,0-1.679,2.557,14.769,14.769,0,0,1,0,24.725,1.529,1.529,0,1,0,1.679,2.557,17.828,17.828,0,0,0,0-29.84Zm2,14.92a11.671,11.671,0,0,0-5.422-9.876,1.511,1.511,0,0,0-2.094.472A1.535,1.535,0,0,0,23.294,9a8.639,8.639,0,0,1,0,14.591,1.535,1.535,0,0,0-.468,2.109,1.513,1.513,0,0,0,2.094.472A11.67,11.67,0,0,0,30.341,16.3ZM21.38,11.436A1.518,1.518,0,0,0,19.916,14.1a2.492,2.492,0,0,1,0,4.4,1.518,1.518,0,0,0,1.464,2.659,5.527,5.527,0,0,0,0-9.718Z" transform="translate(19.305 21.451)" fill="#fff"/>
  </g>
</svg>
