<svg xmlns="http://www.w3.org/2000/svg" width="74.72" height="74.72" viewBox="0 0 74.72 74.72"><g fill="none"><path d="M37.36 0A37.36 37.36 0 1 1 0 37.36 37.36 37.36 0 0 1 37.36 0Z"/><path fill="#fff" d="M37.36 2a35.245 35.245 0 0 0-25.003 10.357A35.245 35.245 0 0 0 2 37.36a35.245 35.245 0 0 0 10.357 25.003A35.245 35.245 0 0 0 37.36 72.72a35.245 35.245 0 0 0 25.003-10.357A35.245 35.245 0 0 0 72.72 37.36a35.245 35.245 0 0 0-10.357-25.003A35.245 35.245 0 0 0 37.36 2m0-2c20.633 0 37.36 16.727 37.36 37.36S57.993 74.72 37.36 74.72 0 57.993 0 37.36 16.727 0 37.36 0Z"/><g stroke="#fff" stroke-linecap="square" stroke-width="2" transform="translate(-422.614 -392.738)"><path d="M458.004 420.98h9.064" data-name="Line 185"/><path d="M451.838 420.98h3.133" data-name="Line 186"/><path d="M451.838 425.48h8.734" data-name="Line 187"/><path d="M451.838 429.979h4.367" data-name="Line 188"/><path d="M451.838 434.479h4.367" data-name="Line 189"/><path d="M447.221 440.742v-21.734a5.73 5.73 0 0 1 5.73-5.73h19.77v27.908a5.73 5.73 0 0 1-5.729 5.729h-19.771" data-name="Path 12990"/><path d="M472.726 418.954v-5.676h0a5.677 5.677 0 0 1 5.677 5.676h-3.26" data-name="Path 12991"/><path d="M466.083 444.712a5.566 5.566 0 0 1-1.146-3.391v-.083h-23.393v.083a5.6 5.6 0 0 0 5.6 5.6h19.013" data-name="Path 12992"/><path d="M467.068 435.572v1.59l-2.131-1-2.131 1v-3.9" data-name="Path 12993"/><circle cx="2.998" cy="2.998" r="2.998" data-name="Ellipse 65" transform="translate(461.938 427.858)"/></g></g></svg>