<svg xmlns="http://www.w3.org/2000/svg" width="74.72" height="74.72" viewBox="0 0 74.72 74.72"><g fill="none"><path d="M37.36 0A37.36 37.36 0 1 1 0 37.36 37.36 37.36 0 0 1 37.36 0Z"/><path fill="#fff" d="M37.36 2a35.245 35.245 0 0 0-25.003 10.357A35.245 35.245 0 0 0 2 37.36a35.245 35.245 0 0 0 10.357 25.003A35.245 35.245 0 0 0 37.36 72.72a35.245 35.245 0 0 0 25.003-10.357A35.245 35.245 0 0 0 72.72 37.36a35.245 35.245 0 0 0-10.357-25.003A35.245 35.245 0 0 0 37.36 2m0-2c20.633 0 37.36 16.727 37.36 37.36S57.993 74.72 37.36 74.72 0 57.993 0 37.36 16.727 0 37.36 0Z"/></g><path fill="#fff" d="m32.511 25.665-5.624 5.627h-6.451a1.517 1.517 0 0 0-1.517 1.517v9.1a1.517 1.517 0 0 0 1.517 1.517h6.451l5.624 5.623a1.518 1.518 0 0 0 2.59-1.073V26.742a1.518 1.518 0 0 0-2.59-1.077Zm14.748-3.224a1.53 1.53 0 1 0-1.679 2.557 14.769 14.769 0 0 1 0 24.725 1.53 1.53 0 1 0 1.679 2.557 17.828 17.828 0 0 0 0-29.84Zm2 14.92a11.671 11.671 0 0 0-5.422-9.876 1.511 1.511 0 0 0-2.094.472 1.535 1.535 0 0 0 .47 2.108 8.639 8.639 0 0 1 0 14.591 1.535 1.535 0 0 0-.468 2.109 1.513 1.513 0 0 0 2.094.472 11.67 11.67 0 0 0 5.421-9.872Zm-8.96-4.86a1.52 1.52 0 0 0-1.464 2.664 2.492 2.492 0 0 1 0 4.4 1.518 1.518 0 0 0 1.464 2.659 5.527 5.527 0 0 0 0-9.718Z" data-name="Icon awesome-volume-up"/></svg>