<svg xmlns="http://www.w3.org/2000/svg" width="74.72" height="74.72" viewBox="0 0 74.72 74.72">
  <g id="volume" transform="translate(-0.386 -0.386)">
    <g id="Base" transform="translate(0.386 0.386)" fill="none">
      <path d="M37.36,0A37.36,37.36,0,1,1,0,37.36,37.36,37.36,0,0,1,37.36,0Z" stroke="none"/>
      <path d="M 37.35986328125 2 C 32.58543014526367 2 27.95487594604492 2.93463134765625 23.59681701660156 4.777931213378906 C 19.38642883300781 6.55877685546875 15.60469818115234 9.108627319335938 12.35666275024414 12.35666275024414 C 9.108627319335938 15.60469818115234 6.55877685546875 19.38642883300781 4.777931213378906 23.59681701660156 C 2.93463134765625 27.95487594604492 2 32.58543014526367 2 37.35986328125 C 2 42.13429641723633 2.93463134765625 46.76485443115234 4.777931213378906 51.12290954589844 C 6.55877685546875 55.33329772949219 9.108627319335938 59.11502838134766 12.35666275024414 62.36306381225586 C 15.60469818115234 65.61109924316406 19.38642883300781 68.16094970703125 23.59681701660156 69.94179534912109 C 27.95487594604492 71.78509521484375 32.58543014526367 72.7197265625 37.35986328125 72.7197265625 C 42.13429641723633 72.7197265625 46.76485443115234 71.78509521484375 51.12290954589844 69.94179534912109 C 55.33329772949219 68.16094970703125 59.11502838134766 65.61109924316406 62.36306381225586 62.36306381225586 C 65.61109924316406 59.11502838134766 68.16094970703125 55.33329772949219 69.94179534912109 51.12290954589844 C 71.78509521484375 46.76485443115234 72.7197265625 42.13429641723633 72.7197265625 37.35986328125 C 72.7197265625 32.58543014526367 71.78509521484375 27.95487594604492 69.94179534912109 23.59681701660156 C 68.16094970703125 19.38642883300781 65.61109924316406 15.60469818115234 62.36306381225586 12.35666275024414 C 59.11502838134766 9.108627319335938 55.33329772949219 6.55877685546875 51.12290954589844 4.777931213378906 C 46.76485443115234 2.93463134765625 42.13429641723633 2 37.35986328125 2 M 37.35986328125 0 C 57.99314117431641 0 74.7197265625 16.72658538818359 74.7197265625 37.35986328125 C 74.7197265625 57.99314117431641 57.99314117431641 74.7197265625 37.35986328125 74.7197265625 C 16.72658538818359 74.7197265625 0 57.99314117431641 0 37.35986328125 C 0 16.72658538818359 16.72658538818359 0 37.35986328125 0 Z" stroke="none" fill="#fff"/>
    </g>
    <g id="dyplom" transform="translate(-422.228 -392.352)">
      <line id="Line_185" data-name="Line 185" x2="9.064" transform="translate(458.004 420.98)" fill="none" stroke="#fff" stroke-linecap="square" stroke-width="2"/>
      <line id="Line_186" data-name="Line 186" x2="3.133" transform="translate(451.838 420.98)" fill="none" stroke="#fff" stroke-linecap="square" stroke-width="2"/>
      <line id="Line_187" data-name="Line 187" x2="8.734" transform="translate(451.838 425.48)" fill="none" stroke="#fff" stroke-linecap="square" stroke-width="2"/>
      <line id="Line_188" data-name="Line 188" x2="4.367" transform="translate(451.838 429.979)" fill="none" stroke="#fff" stroke-linecap="square" stroke-width="2"/>
      <line id="Line_189" data-name="Line 189" x2="4.367" transform="translate(451.838 434.479)" fill="none" stroke="#fff" stroke-linecap="square" stroke-width="2"/>
      <path id="Path_12988" data-name="Path 12988" d="M471.126,446.976" transform="translate(-14.921 -16.997)" fill="none" stroke="#fff" stroke-linecap="square" stroke-width="2"/>
      <path id="Path_12989" data-name="Path 12989" d="M462.314,448.5" transform="translate(-10.476 -17.767)" fill="none" stroke="#fff" stroke-linecap="square" stroke-width="2"/>
      <path id="Path_12990" data-name="Path 12990" d="M453,440.742V419.008a5.73,5.73,0,0,1,5.73-5.73H478.5v27.908a5.73,5.73,0,0,1-5.729,5.729H453" transform="translate(-5.779)" fill="none" stroke="#fff" stroke-linecap="square" stroke-width="2"/>
      <path id="Path_12991" data-name="Path 12991" d="M504.459,418.954v-5.676h0a5.677,5.677,0,0,1,5.677,5.676h-3.26" transform="translate(-31.733)" fill="none" stroke="#fff" stroke-linecap="square" stroke-width="2"/>
      <path id="Path_12992" data-name="Path 12992" d="M466.083,473.167a5.566,5.566,0,0,1-1.146-3.391v-.083H441.544v.083a5.6,5.6,0,0,0,5.6,5.6h19.013" transform="translate(0 -28.455)" fill="none" stroke="#fff" stroke-linecap="square" stroke-width="2"/>
      <path id="Path_12993" data-name="Path 12993" d="M488.706,455.91V457.5l-2.131-1-2.131,1v-3.9" transform="translate(-21.638 -20.338)" fill="none" stroke="#fff" stroke-linecap="square" stroke-width="2"/>
      <circle id="Ellipse_65" data-name="Ellipse 65" cx="2.998" cy="2.998" r="2.998" transform="translate(461.938 427.858)" fill="none" stroke="#fff" stroke-linecap="square" stroke-width="2"/>
    </g>
  </g>
</svg>
